<svg xmlns="http://www.w3.org/2000/svg" viewBox="0 0 32 32" width="32" height="32">
  <rect width="32" height="32" rx="6" fill="#E53935"/>
  <g transform="translate(4, 4) scale(1)">
    <path fill="#FFFFFF" d="
      M12 4
      C10 4 9 5 9 6.5
      C9 7.5 9.5 8 10 8.5
      L10 9
      C8 9 6.5 10 6.5 12
      C6.5 13.5 7.5 14.5 9 15
      L9 16
      C8.5 16.5 8 17.5 8 18.5
      C8 20 9 21 10 21
      L14 21
      C15 21 16 20 16 18.5
      C16 17.5 15.5 16.5 15 16
      L15 15
      C16.5 14.5 17.5 13.5 17.5 12
      C17.5 10 16 9 14 9
      L14 8.5
      C14.5 8 15 7.5 15 6.5
      C15 5 14 4 12 4
      Z
      M5 7
      C4 6 2.5 6 2 7
      C1.5 8 2 9 3 9.5
      L6 11
      C6 10 6.5 9.5 7 9
      L5 7
      Z
      M19 7
      C20 6 21.5 6 22 7
      C22.5 8 22 9 21 9.5
      L18 11
      C18 10 17.5 9.5 17 9
      L19 7
      Z
    "/>
  </g>
</svg>
